<svg xmlns="http://www.w3.org/2000/svg" xmlns:xlink="http://www.w3.org/1999/xlink" viewBox="0 0 459.65 474.5"><defs><style>.cls-1{fill:#010101;}</style></defs><g id="Layer_2" data-name="Layer 2"><g id="Layer_1-2" data-name="Layer 1"><image width="3034" height="3132" transform="scale(0.15)" xlink:href="../Outer%20ring.png"/><g id="Layer_2-2" data-name="Layer 2"><g id="Layer_1-2-2" data-name="Layer 1-2"><path class="cls-1" d="M88.88,278.78c4.14-11.51,8.25-23.13,12.34-34.69a10.09,10.09,0,0,1,9.71-6.82c2.94-.06,5.7.26,8.08,2.19a10.27,10.27,0,0,1,3.33,4.81q5.72,17.23,11.4,34.49c1.16,3.55-.08,6-3.62,7.14l-2.6.84c-1.57.51-1.57.51-2.1-1.09l-12.57-38.08a3.45,3.45,0,0,0-.2-.32c-.47-.8-1.3-.85-1.81.1-2.26,6.26-4.51,12.4-6.82,18.8h6.13a10.07,10.07,0,0,1,9.63,9.26c0,.88-.48.68-.93.68h-17A1.63,1.63,0,0,0,100,277.4v.06c-.66,2.12-1.33,4.26-3,5.9a9.9,9.9,0,0,1-9.85,2.78"/><path class="cls-1" d="M163.39,287h-17c-.93,0-1.08-.29-1-1.12a10,10,0,0,1,9.54-8.83q9.66-.06,19.36,0c.84,0,1.13-.15,1.11-1q-.1-3.85,0-7.71c0-.93-.18-1.23-1.2-1.23-7.78.05-15.57,0-23.36,0-3.48,0-5.46-2-5.46-5.45V242.55a4.91,4.91,0,0,1,4.52-5.28,5.21,5.21,0,0,1,.79,0c11.16,0,22.32.06,33.44,0,1.11,0,1.31.32,1.18,1.31a10,10,0,0,1-9.79,8.69h-19c-.89,0-1.21.15-1.18,1.13.08,2.52.08,5,0,7.57,0,1,.19,1.3,1.26,1.3,7.79-.06,15.58,0,23.36,0,3.41,0,5.4,2,5.4,5.39V281.8c0,3.29-2,5.3-5.36,5.3Z"/><path class="cls-1" d="M275.71,267.21l5.55,10.35c1.31,2.44,2.59,4.89,4,7.3.39.69.15.86-.42,1.13a10,10,0,0,1-12.71-4.2q-3.61-6.42-7-13a2.57,2.57,0,0,0-2.8-1.71,56.79,56.79,0,0,1-6.12,0c-.81,0-1,.24-.94,1v17.77c0,1-.29,1.21-1.23,1.19-2.62-.06-5.25-.06-7.87,0-.81,0-.94-.24-.94-1V262a4.87,4.87,0,0,1,4.85-4.9H274c1.08,0,1.3-.29,1.27-1.29-.08-2.57-.07-5.14,0-7.71,0-.85-.26-1-1-1h-19a10,10,0,0,1-9.93-8.53c0-.78-.08-1.34,1.26-1.34,9.58.08,19.16,0,28.73,0a9.87,9.87,0,0,1,10,9.7c0,.1,0,.2,0,.3,0,3.15-.13,6.3,0,9.44A10.18,10.18,0,0,1,275.71,267.21Z"/><path class="cls-1" d="M319.37,247.27s-8.53,25.72-12.74,38.6c-.37,1.12-.67,1.59-1.89,1a25.43,25.43,0,0,0-3.06-1c-3.14-1.07-4.45-3.59-3.42-6.72q3.93-12,7.9-24c1.21-3.67,2.42-7.34,3.67-11a9.81,9.81,0,0,1,9.52-6.83,15.09,15.09,0,0,1,4.78.36,10,10,0,0,1,6.66,6.36q7.26,20.23,14.43,40.39c.55,1.56.56,1.55-1.16,1.87a9.93,9.93,0,0,1-11-6c-.2-.5-.37-1-.55-1.51-1-2.68-1-2.68-3.91-2.68H313.36c-.89,0-1.12-.21-1-1.09a10.08,10.08,0,0,1,9.39-8.86h6.31c-2.27-6.37-4.5-12.63-6.74-18.89C320.35,245.27,319.37,247.27,319.37,247.27Z"/><path class="cls-1" d="M220.36,260.44V281.8a5,5,0,0,1-10,0V248.51c0-1-.2-1.3-1.26-1.28-4.25.07-8.49,0-12.74,0-.93,0-1.08-.29-1-1.12.38-4.57,4.69-8.76,9.28-8.83,5-.07,9.91,0,14.86,0,.93,0,.86.43.86,1Q220.34,249.4,220.36,260.44Z"/><path class="cls-1" d="M230.47,237.27a4.92,4.92,0,0,1,4.89,4.95v.19a5,5,0,0,1-10-.34,4.9,4.9,0,0,1,5-4.8Z"/></g></g></g></g></svg>