<svg xmlns="http://www.w3.org/2000/svg" viewBox="0 0 258.42 49.84"><g id="Layer_2" data-name="Layer 2"><g id="Layer_1-2" data-name="Layer 1"><path d="M1.75,41.51C5.89,30,10,18.38,14.09,6.82A10.1,10.1,0,0,1,23.8,0c2.94-.06,5.7.26,8.08,2.19A10.19,10.19,0,0,1,35.21,7q5.72,17.24,11.4,34.49c1.16,3.55-.08,6-3.62,7.14l-2.6.84c-1.57.51-1.57.51-2.1-1.09L25.72,10.3a1.55,1.55,0,0,0-.2-.32c-.47-.8-1.3-.85-1.81.1-2.26,6.26-4.51,12.4-6.82,18.8,2.16,0,4.15,0,6.13,0a10.06,10.06,0,0,1,9.63,9.26c.05.88-.48.68-.93.68-5.66,0-11.32,0-17,0a1.61,1.61,0,0,0-1.87,1.37c-.66,2.12-1.33,4.26-3,5.9A9.9,9.9,0,0,1,0,48.87"/><path d="M76.26,49.76c-5.66,0-11.33,0-17,0-.93,0-1.08-.29-1-1.12a10,10,0,0,1,9.54-8.83q9.67-.06,19.36,0c.84,0,1.13-.15,1.11-1q-.1-3.86,0-7.71c0-.93-.18-1.23-1.2-1.23-7.78.05-15.57,0-23.36,0-3.48,0-5.46-2-5.46-5.45V5.28A4.92,4.92,0,0,1,63.56,0C74.72,0,85.88.06,97,0c1.11,0,1.31.32,1.18,1.31A10,10,0,0,1,88.39,10q-9.49,0-19,0c-.89,0-1.21.15-1.18,1.13.08,2.52.08,5.05,0,7.57,0,1,.19,1.3,1.26,1.3,7.79-.06,15.58,0,23.36,0,3.41,0,5.4,2,5.4,5.39q0,9.57,0,19.14c0,3.29-2,5.3-5.36,5.3Z"/><path d="M188.58,29.94l5.55,10.35c1.31,2.44,2.59,4.89,4,7.3.39.69.15.86-.42,1.13A10,10,0,0,1,185,44.52q-3.61-6.42-7-13a2.56,2.56,0,0,0-2.8-1.71,56.78,56.78,0,0,1-6.12,0c-.81,0-1,.24-.94,1,0,5.93,0,11.85,0,17.77,0,1-.29,1.21-1.23,1.19-2.62-.06-5.25-.06-7.87,0-.81,0-.94-.24-.94-1,0-8,0-16,0-24a4.88,4.88,0,0,1,5-4.9c7.91,0,15.82,0,23.73,0,1.08,0,1.3-.29,1.27-1.29-.08-2.57-.07-5.14,0-7.71,0-.85-.26-1-1-1-6.33,0-12.66,0-19,0a10,10,0,0,1-9.93-8.53C158.14.56,158.09,0,159.43,0c9.58.08,19.16,0,28.73,0a9.88,9.88,0,0,1,10.06,10c0,3.15-.13,6.3,0,9.44A10.17,10.17,0,0,1,188.58,29.94Z"/><path d="M232.24,10s-8.53,25.72-12.74,38.6c-.37,1.12-.67,1.59-1.89,1a24.44,24.44,0,0,0-3.06-1c-3.14-1.07-4.45-3.59-3.42-6.72q3.93-12,7.9-24c1.21-3.67,2.42-7.34,3.67-11A9.82,9.82,0,0,1,232.22.05,15.05,15.05,0,0,1,237,.41a10,10,0,0,1,6.66,6.36Q250.92,27,258.09,47.16c.55,1.56.56,1.55-1.16,1.87a9.93,9.93,0,0,1-11-6c-.2-.5-.37-1-.55-1.51-1-2.68-1-2.68-3.91-2.68-5.08,0-10.16,0-15.24,0-.89,0-1.12-.21-1-1.09a10.08,10.08,0,0,1,9.39-8.86c2,0,4.08,0,6.31,0-2.27-6.37-4.5-12.63-6.74-18.89C233.22,8,232.24,10,232.24,10Z"/><path d="M133.23,23.17q0,10.68,0,21.36a5,5,0,1,1-10,0q0-16.65,0-33.29c0-1-.2-1.3-1.26-1.28-4.25.07-8.49,0-12.74,0-.93,0-1.08-.29-1-1.12.38-4.57,4.69-8.76,9.28-8.83,5-.07,9.91,0,14.86,0,.93,0,.86.43.86,1Q133.22,12.12,133.23,23.17Z"/><path d="M143.34,0a4.92,4.92,0,0,1,4.89,5.14,5,5,0,0,1-10-.34A4.92,4.92,0,0,1,143.34,0Z"/></g></g></svg>