<svg width="782" height="782" viewBox="0 0 782 782" fill="none" xmlns="http://www.w3.org/2000/svg">
<path d="M515.625 390.625C515.625 415.348 508.294 439.515 494.559 460.071C480.824 480.627 461.301 496.649 438.46 506.11C415.62 515.571 390.486 518.046 366.239 513.223C341.991 508.4 319.718 496.495 302.237 479.013C284.755 461.532 272.85 439.259 268.027 415.011C263.204 390.764 265.679 365.63 275.14 342.79C284.601 319.949 300.623 300.426 321.179 286.691C341.735 272.956 365.902 265.625 390.625 265.625C423.745 265.728 455.48 278.931 478.9 302.35C502.319 325.77 515.522 357.505 515.625 390.625ZM781.25 218.75V562.5C781.25 620.516 758.203 676.156 717.18 717.18C676.156 758.203 620.516 781.25 562.5 781.25H218.75C160.734 781.25 105.094 758.203 64.0704 717.18C23.0468 676.156 0 620.516 0 562.5V218.75C0 160.734 23.0468 105.094 64.0704 64.0704C105.094 23.0468 160.734 0 218.75 0H562.5C620.516 0 676.156 23.0468 717.18 64.0704C758.203 105.094 781.25 160.734 781.25 218.75ZM578.125 390.625C578.125 353.541 567.128 317.29 546.526 286.456C525.923 255.621 496.639 231.589 462.378 217.398C428.117 203.206 390.417 199.493 354.046 206.728C317.674 213.963 284.265 231.82 258.042 258.042C231.82 284.265 213.963 317.674 206.728 354.046C199.493 390.417 203.206 428.117 217.398 462.378C231.589 496.639 255.621 525.923 286.456 546.526C317.29 567.128 353.541 578.125 390.625 578.125C440.353 578.125 488.044 558.371 523.208 523.208C558.371 488.044 578.125 440.353 578.125 390.625ZM640.625 187.5C640.625 178.229 637.876 169.166 632.725 161.458C627.574 153.749 620.254 147.741 611.688 144.193C603.123 140.645 593.698 139.717 584.605 141.526C575.512 143.334 567.16 147.799 560.604 154.354C554.049 160.91 549.584 169.262 547.776 178.355C545.967 187.448 546.895 196.873 550.443 205.438C553.991 214.004 559.999 221.324 567.708 226.475C575.416 231.626 584.479 234.375 593.75 234.375C606.182 234.375 618.105 229.436 626.896 220.646C635.686 211.855 640.625 199.932 640.625 187.5Z" fill="black"/>
</svg>
